<?xml version="1.0" encoding="UTF-8" standalone="no"?>
<svg
   xmlns:dc="http://purl.org/dc/elements/1.1/"
   xmlns:cc="http://creativecommons.org/ns#"
   xmlns:rdf="http://www.w3.org/1999/02/22-rdf-syntax-ns#"
   xmlns:svg="http://www.w3.org/2000/svg"
   xmlns="http://www.w3.org/2000/svg"
   height="174.93333"
   width="199.46666"
   viewBox="0 0 187 164"
   id="svg8809"
   version="1.1">
  <defs
     id="defs8811">
    <clipPath
       clipPathUnits="userSpaceOnUse"
       id="clipPath9817">
      <ellipse
         ry="13.088159"
         rx="12.761936"
         style="color:#000000;clip-rule:nonzero;display:inline;overflow:visible;visibility:visible;opacity:1;isolation:auto;mix-blend-mode:normal;color-interpolation:sRGB;color-interpolation-filters:linearRGB;solid-color:#000000;solid-opacity:1;fill:#ffffff;fill-opacity:1;fill-rule:nonzero;stroke:none;stroke-width:2;stroke-linecap:round;stroke-linejoin:miter;stroke-miterlimit:4;stroke-dasharray:none;stroke-dashoffset:0;stroke-opacity:1;marker:none;color-rendering:auto;image-rendering:auto;shape-rendering:auto;text-rendering:auto;enable-background:accumulate"
         id="ellipse9819"
         cx="-525.88922"
         cy="345.24722"
         transform="matrix(0,1,1,0,0,0)" />
    </clipPath>
    <clipPath
       clipPathUnits="userSpaceOnUse"
       id="clipPath9708">
      <path
         style="color:#000000;clip-rule:nonzero;display:inline;overflow:visible;visibility:visible;opacity:1;isolation:auto;mix-blend-mode:normal;color-interpolation:sRGB;color-interpolation-filters:linearRGB;solid-color:#000000;solid-opacity:1;fill:#ffffff;fill-opacity:1;fill-rule:nonzero;stroke:none;stroke-width:2;stroke-linecap:round;stroke-linejoin:miter;stroke-miterlimit:4;stroke-dasharray:none;stroke-dashoffset:0;stroke-opacity:1;marker:none;color-rendering:auto;image-rendering:auto;shape-rendering:auto;text-rendering:auto;enable-background:accumulate"
         d="m -2327.5099,929.57434 c 2.5934,7.13428 0.1401,15.05484 -6.9717,19.90525 -5.1263,3.49627 -11.1671,5.9769 -17.319,5.02597 l 0.6473,-8.68837 8.23,-22.47231 c 2.4345,-5.4981 11.1199,-0.49988 11.1199,-0.49988 2.0004,2.06064 3.429,4.35125 4.2935,6.72934 z"
         id="path9710" />
    </clipPath>
    <clipPath
       clipPathUnits="userSpaceOnUse"
       id="clipPath9618">
      <ellipse
         transform="matrix(-0.72487964,-0.68887554,0.59004369,-0.80737132,0,0)"
         ry="14.170568"
         rx="13.229734"
         style="color:#000000;clip-rule:nonzero;display:inline;overflow:visible;visibility:visible;opacity:1;isolation:auto;mix-blend-mode:normal;color-interpolation:sRGB;color-interpolation-filters:linearRGB;solid-color:#000000;solid-opacity:1;fill:#ffffff;fill-opacity:1;fill-rule:nonzero;stroke:none;stroke-width:2;stroke-linecap:round;stroke-linejoin:miter;stroke-miterlimit:4;stroke-dasharray:none;stroke-dashoffset:0;stroke-opacity:1;marker:none;color-rendering:auto;image-rendering:auto;shape-rendering:auto;text-rendering:auto;enable-background:accumulate"
         id="ellipse9620"
         cx="33.025452"
         cy="626.37146" />
    </clipPath>
    <clipPath
       clipPathUnits="userSpaceOnUse"
       id="clipPath9708-2">
      <path
         style="color:#000000;clip-rule:nonzero;display:inline;overflow:visible;visibility:visible;opacity:1;isolation:auto;mix-blend-mode:normal;color-interpolation:sRGB;color-interpolation-filters:linearRGB;solid-color:#000000;solid-opacity:1;fill:#ffffff;fill-opacity:1;fill-rule:nonzero;stroke:none;stroke-width:2;stroke-linecap:round;stroke-linejoin:miter;stroke-miterlimit:4;stroke-dasharray:none;stroke-dashoffset:0;stroke-opacity:1;marker:none;color-rendering:auto;image-rendering:auto;shape-rendering:auto;text-rendering:auto;enable-background:accumulate"
         d="m -2327.5099,929.57434 c 2.5934,7.13428 0.1401,15.05484 -6.9717,19.90525 -5.1263,3.49627 -11.1671,5.9769 -17.319,5.02597 l 0.6473,-8.68837 8.23,-22.47231 c 2.4345,-5.4981 11.1199,-0.49988 11.1199,-0.49988 2.0004,2.06064 3.429,4.35125 4.2935,6.72934 z"
         id="path9710-2" />
    </clipPath>
  </defs>
  <metadata
     id="metadata8814">
    <rdf:RDF>
      <cc:Work
         rdf:about="">
        <dc:format>image/svg+xml</dc:format>
        <dc:type
           rdf:resource="http://purl.org/dc/dcmitype/StillImage" />
        <dc:title></dc:title>
      </cc:Work>
    </rdf:RDF>
  </metadata>
  <g
     style="display:inline;fill:#dddddc;fill-opacity:1;stroke:none"
     transform="matrix(1.1224682,0,0,1.1224682,-18.493151,-11.958944)"
     id="g15523">
    <g
       id="g15762-6-3"
       transform="matrix(1.1831154,0,0,1.1831154,-2.754586,-19.171034)"
       style="display:inline;fill:#dddddc;fill-opacity:1;stroke:none">
      <circle
         class="st4"
         cx="126.3"
         cy="101.1"
         r="11.5"
         id="circle15746-0-9"
         style="fill:#2d2d2d" />
      <circle
         class="st5"
         cx="126.3"
         cy="101.1"
         r="7.8242078"
         id="circle15748-7-9"
         style="fill:#878787;fill-opacity:1;stroke:#221f1f;stroke-width:1.24193776;stroke-miterlimit:10" />
      <g
         id="g15754-1-9">
        <path
           id="path15750-5-1"
           d="m 133.50274,101.1 a 7.202736,7.202736 0 0 1 -3.07941,5.90573 L 126.3,101.1 Z"
           style="fill:#b8b8b9;fill-opacity:1;stroke:none;stroke-width:1.14329135;stroke-miterlimit:10" />
        <path
           style="fill:#b8b8b9;fill-opacity:1;stroke:none;stroke-width:1.14329135;stroke-miterlimit:10"
           d="m 119.10093,101.09621 a 7.202736,7.202736 0 0 1 3.07941,-5.905733 l 4.12333,5.905733 z"
           id="path15752-0-3" />
      </g>
      <g
         id="g15760-4-2"
         transform="rotate(-90,126.30183,101.0981)">
        <path
           style="fill:#b8b8b9;fill-opacity:1;stroke:none;stroke-width:1.14329135;stroke-miterlimit:10"
           d="m 133.50274,101.1 a 7.202736,7.202736 0 0 1 -3.07941,5.90573 L 126.3,101.1 Z"
           id="path15756-7-8" />
        <path
           id="path15758-4-6"
           d="m 119.10093,101.09621 a 7.202736,7.202736 0 0 1 3.07941,-5.905733 l 4.12333,5.905733 z"
           style="fill:#b8b8b9;fill-opacity:1;stroke:none;stroke-width:1.14329135;stroke-miterlimit:10" />
      </g>
      <path
         id="circle2490"
         d="m 126.30078,92.654297 c -4.65679,0 -8.44531,3.788525 -8.44531,8.445313 0,4.65679 3.78852,8.44531 8.44531,8.44531 4.65679,0 8.44531,-3.78852 8.44531,-8.44531 0,-4.656788 -3.78852,-8.445313 -8.44531,-8.445313 z m 0,1.242187 c 3.9856,0 7.20313,3.217531 7.20313,7.203126 0,3.98559 -3.21753,7.20312 -7.20313,7.20312 -3.98559,0 -7.20312,-3.21753 -7.20312,-7.20312 0,-3.985595 3.21753,-7.203126 7.20312,-7.203126 z"
         style="color:#000000;font-style:normal;font-variant:normal;font-weight:normal;font-stretch:normal;font-size:medium;line-height:normal;font-family:sans-serif;font-variant-ligatures:normal;font-variant-position:normal;font-variant-caps:normal;font-variant-numeric:normal;font-variant-alternates:normal;font-feature-settings:normal;text-indent:0;text-align:start;text-decoration:none;text-decoration-line:none;text-decoration-style:solid;text-decoration-color:#000000;letter-spacing:normal;word-spacing:normal;text-transform:none;writing-mode:lr-tb;direction:ltr;text-orientation:mixed;dominant-baseline:auto;baseline-shift:baseline;text-anchor:start;white-space:normal;shape-padding:0;clip-rule:nonzero;display:inline;overflow:visible;visibility:visible;opacity:1;isolation:auto;mix-blend-mode:normal;color-interpolation:sRGB;color-interpolation-filters:linearRGB;solid-color:#000000;solid-opacity:1;vector-effect:none;fill:#221f1f;fill-opacity:1;fill-rule:nonzero;stroke:none;stroke-width:1.24193776;stroke-linecap:butt;stroke-linejoin:miter;stroke-miterlimit:10;stroke-dasharray:none;stroke-dashoffset:0;stroke-opacity:1;color-rendering:auto;image-rendering:auto;shape-rendering:auto;text-rendering:auto;enable-background:accumulate" />
    </g>
    <g
       style="display:inline;fill:#dddddc;fill-opacity:1;stroke:none"
       transform="matrix(1.1831154,0,0,1.1831154,-96.983147,-19.171034)"
       id="g15548">
      <circle
         style="fill:#2d2d2d"
         id="circle15528"
         r="11.5"
         cy="101.1"
         cx="126.3"
         class="st4" />
      <circle
         style="fill:#878787;fill-opacity:1;stroke:#221f1f;stroke-width:1.24193776;stroke-miterlimit:10"
         id="circle15530"
         r="7.8242078"
         cy="101.1"
         cx="126.3"
         class="st5" />
      <g
         id="g15536">
        <path
           style="fill:#b8b8b9;fill-opacity:1;stroke:none;stroke-width:1.14329135;stroke-miterlimit:10"
           d="m 133.50274,101.1 a 7.202736,7.202736 0 0 1 -3.07941,5.90573 L 126.3,101.1 Z"
           id="path15532" />
        <path
           id="path15534"
           d="m 119.10093,101.09621 a 7.202736,7.202736 0 0 1 3.07941,-5.905733 l 4.12333,5.905733 z"
           style="fill:#b8b8b9;fill-opacity:1;stroke:none;stroke-width:1.14329135;stroke-miterlimit:10" />
      </g>
      <g
         transform="rotate(-90,126.30183,101.0981)"
         id="g15546">
        <path
           id="path15542"
           d="m 133.50274,101.1 a 7.202736,7.202736 0 0 1 -3.07941,5.90573 L 126.3,101.1 Z"
           style="fill:#b8b8b9;fill-opacity:1;stroke:none;stroke-width:1.14329135;stroke-miterlimit:10" />
        <path
           style="fill:#b8b8b9;fill-opacity:1;stroke:none;stroke-width:1.14329135;stroke-miterlimit:10"
           d="m 119.10093,101.09621 a 7.202736,7.202736 0 0 1 3.07941,-5.905733 l 4.12333,5.905733 z"
           id="path15544" />
      </g>
      <path
         id="circle2492"
         d="m 126.30078,92.654297 c -4.65679,0 -8.44531,3.788525 -8.44531,8.445313 0,4.65679 3.78852,8.44531 8.44531,8.44531 4.65679,0 8.44531,-3.78852 8.44531,-8.44531 0,-4.656788 -3.78852,-8.445313 -8.44531,-8.445313 z m 0,1.242187 c 3.9856,0 7.20313,3.217531 7.20313,7.203126 0,3.98559 -3.21753,7.20312 -7.20313,7.20312 -3.98559,0 -7.20312,-3.21753 -7.20312,-7.20312 0,-3.985595 3.21753,-7.203126 7.20312,-7.203126 z"
         style="color:#000000;font-style:normal;font-variant:normal;font-weight:normal;font-stretch:normal;font-size:medium;line-height:normal;font-family:sans-serif;font-variant-ligatures:normal;font-variant-position:normal;font-variant-caps:normal;font-variant-numeric:normal;font-variant-alternates:normal;font-feature-settings:normal;text-indent:0;text-align:start;text-decoration:none;text-decoration-line:none;text-decoration-style:solid;text-decoration-color:#000000;letter-spacing:normal;word-spacing:normal;text-transform:none;writing-mode:lr-tb;direction:ltr;text-orientation:mixed;dominant-baseline:auto;baseline-shift:baseline;text-anchor:start;white-space:normal;shape-padding:0;clip-rule:nonzero;display:inline;overflow:visible;visibility:visible;opacity:1;isolation:auto;mix-blend-mode:normal;color-interpolation:sRGB;color-interpolation-filters:linearRGB;solid-color:#000000;solid-opacity:1;vector-effect:none;fill:#221f1f;fill-opacity:1;fill-rule:nonzero;stroke:none;stroke-width:1.24193776;stroke-linecap:butt;stroke-linejoin:miter;stroke-miterlimit:10;stroke-dasharray:none;stroke-dashoffset:0;stroke-opacity:1;color-rendering:auto;image-rendering:auto;shape-rendering:auto;text-rendering:auto;enable-background:accumulate" />
    </g>
    <path
       class="st3"
       d="M 134.05057,71.055652 C 127.04507,65.24788 120.08415,60.217355 112.8035,57.419401 104.21422,54.118539 95.535455,53.56944 90.963599,53.367132 H 68.661068 c -9.681832,0 -26.714937,5.944091 -33.269323,15.040028 v 12.770327 c -5.247874,0 -4.367688,4.876215 -4.411692,9.803813 -0.04494,5.032552 0.739628,10.1187 6.238368,10.1187 0,-20.98068 30.245978,-20.999651 30.245978,0 h 64.019481 c 0,-21.232839 30.47613,-20.885512 30.47613,0 h 1.63852 c 2.8,0 5,-2.3 5,-5 v -3.4 c 0,-3.502556 -0.69519,-6.567391 -1.90386,-9.203988 -3.6773,-8.021662 -12.66595,-8.542927 -32.6441,-12.44036 z"
       id="path15464"
       style="fill:#d02029;fill-opacity:1" />
    <g
       transform="matrix(1,0.07256581,0,1,5.5277935,-7.4552236)"
       id="g15486">
      <path
         class="st1"
         d="M 117.91858,65.104528 C 108.59889,58.713883 97.055622,55.980932 86.379543,57.581078 V 71.759925 L 117.88572,70.948934 Z"
         id="path15480"
         style="fill:#88cdd1;fill-opacity:1" />
      <path
         style="fill:#221f1f;fill-opacity:1"
         id="path15484"
         d="m 117.91858,65.104528 c 0,0 -7.23524,-4.62232 -12.56561,-5.946501 l 1.83789,-2.052606 c 0,0 10.01928,2.711147 21.33422,12.088795 l -10.63936,1.754718 z"
         class="st1" />
      <path
         style="fill:#e6e6e6;fill-opacity:1"
         id="path16229"
         d="m 105.35297,59.158027 c -2.5675,-0.795095 -5.09528,-1.285675 -7.733446,-1.629971 l -7.501226,14.135631 8.548295,-0.220039 z"
         class="st1" />
    </g>
    <path
       style="display:inline;opacity:1;vector-effect:none;fill:#d02029;fill-opacity:1;stroke:none;stroke-width:1.57936954;stroke-linecap:butt;stroke-linejoin:miter;stroke-miterlimit:4;stroke-dasharray:none;stroke-dashoffset:0;stroke-opacity:1"
       d="m 53.981459,53.367132 h 15.64916 l -15.64916,7.325738 z"
       id="path15488" />
    <g
       transform="matrix(1.1257451,0,0,1,-6.3609921,-1.974212)"
       id="g15496">
      <path
         style="fill:#221f1f;fill-opacity:1;stroke-width:0.64901108"
         id="path15596"
         d="m 64.564675,59.269039 c -5.493401,0.376062 -13.458314,5.548219 -16.156914,11.288115 l 9.176027,0.47446 z"
         class="st1" />
      <path
         class="st1"
         d="m 83.270151,58.621976 c 0,0 -15.862807,0.386019 -18.705476,0.647063 l -8.427277,11.706909 27.132753,1.306 z"
         id="path15490"
         style="fill:#88cdd1;fill-opacity:1;stroke-width:0.64901108" />
    </g>
    <g
       id="g15498" />
    <path
       class="st10"
       d="M 126.2879,76.054417 91.721227,74.354603 V 97.41689 H 129.1879 c 0,0 0.1,-12.855519 0,-18.344052 -0.1,-1.590898 -1.59769,-2.959742 -2.9,-3.018421 z"
       id="path15500"
       style="fill:#af2834;fill-opacity:1;stroke-width:1.10363543" />
    <circle
       class="st10"
       cx="47.51347"
       cy="78.300003"
       r="3.7"
       id="circle15504"
       style="fill:#af2834;fill-opacity:1" />
    <path
       class="st6"
       d="m 124.2584,65.446048 h -0.84489 v 6.602135 h 0.84489 c 1.77427,0 3.21059,-1.436315 3.21059,-3.210587 v -0.180961 c 0,-1.774272 -1.5208,-3.210587 -3.21059,-3.210587 z"
       id="path15506"
       style="fill:#af2834;fill-opacity:1;stroke-width:0.84489125" />
    <g
       id="g15513"
       transform="translate(12.470743)">
      <path
         id="path15509"
         d="m 155.36683,86.857917 c -3.87005,0 -9.91763,-1.733938 -10.39159,-5.724246 h 3.67385 z"
         style="opacity:1;vector-effect:none;fill:#f4831f;fill-opacity:1;stroke:none;stroke-width:1.97337806;stroke-linecap:butt;stroke-linejoin:miter;stroke-miterlimit:4;stroke-dasharray:none;stroke-dashoffset:0;stroke-opacity:1" />
      <path
         style="opacity:1;vector-effect:none;fill:#dfdfdf;fill-opacity:1;stroke:none;stroke-width:1.57936954;stroke-linecap:butt;stroke-linejoin:miter;stroke-miterlimit:4;stroke-dasharray:none;stroke-dashoffset:0;stroke-opacity:1"
         d="m 155.41135,86.832621 c -3.32236,0.21403 -7.10578,-3.221516 -7.21034,-5.69895 h 4.60513 c 1.37765,1.736927 2.11411,3.955591 2.60521,5.69895 z"
         id="path15511" />
    </g>
    <g
       transform="matrix(0.9979585,0.07292636,0.06386572,-1.1395391,-7.2018284,158.14241)"
       id="g14735">
      <path
         style="fill:#ea2227;fill-opacity:1"
         id="path15502"
         d="m 38.154101,70.054381 0.552313,0.0063 c 1.299915,0.01483 2.098045,1.246782 1.951406,2.624881 l -0.724082,6.804878 c -0.137552,1.292702 -0.340111,1.589283 -1.641166,1.674455 l -0.781229,-0.0089 z"
         class="st8" />
      <path
         class="st8"
         d="m 40.204553,76.945342 -0.270815,2.545098 c -0.137552,1.292702 -0.340111,1.589283 -1.641166,1.674455 l -0.781229,-0.0089 0.279353,-4.365131 z"
         id="path15519"
         style="fill:#f4831f;fill-opacity:1" />
    </g>
    <path
       style="fill:#af2834;fill-opacity:1;stroke-width:1.10363543"
       id="path15521"
       d="M 87.377961,74.176456 V 97.41689 H 71.404349 c 0,0 -2.53756,-8.502329 -11.049489,-13.790948 -1.681289,-1.044616 -4.541837,-4.010064 -4.541837,-6.143197 0,-0.605693 0.02332,-4.168284 0.06307,-4.664961 z"
       class="st10" />
  </g>
</svg>
